<svg width="200" height="80" viewBox="0 0 200 80" fill="none" xmlns="http://www.w3.org/2000/svg">
<rect width="200" height="80" rx="6" fill="#D9D9D9"/>
<path d="M57.0516 33.14H53.4036L52.7316 35H51.5796L54.6036 26.684H55.8636L58.8756 35H57.7236L57.0516 33.14ZM56.7396 32.252L55.2276 28.028L53.7156 32.252H56.7396ZM62.6415 33.992L64.6815 28.424H65.8455L63.2655 35H61.9935L59.4135 28.424H60.5895L62.6415 33.992ZM66.5121 31.688C66.5121 31.016 66.6481 30.428 66.9201 29.924C67.1921 29.412 67.5641 29.016 68.0361 28.736C68.5161 28.456 69.0481 28.316 69.6321 28.316C70.2081 28.316 70.7081 28.44 71.1321 28.688C71.5561 28.936 71.8721 29.248 72.0801 29.624V28.424H73.1841V35H72.0801V33.776C71.8641 34.16 71.5401 34.48 71.1081 34.736C70.6841 34.984 70.1881 35.108 69.6201 35.108C69.0361 35.108 68.5081 34.964 68.0361 34.676C67.5641 34.388 67.1921 33.984 66.9201 33.464C66.6481 32.944 66.5121 32.352 66.5121 31.688ZM72.0801 31.7C72.0801 31.204 71.9801 30.772 71.7801 30.404C71.5801 30.036 71.3081 29.756 70.9641 29.564C70.6281 29.364 70.2561 29.264 69.8481 29.264C69.4401 29.264 69.0681 29.36 68.7321 29.552C68.3961 29.744 68.1281 30.024 67.9281 30.392C67.7281 30.76 67.6281 31.192 67.6281 31.688C67.6281 32.192 67.7281 32.632 67.9281 33.008C68.1281 33.376 68.3961 33.66 68.7321 33.86C69.0681 34.052 69.4401 34.148 69.8481 34.148C70.2561 34.148 70.6281 34.052 70.9641 33.86C71.3081 33.66 71.5801 33.376 71.7801 33.008C71.9801 32.632 72.0801 32.196 72.0801 31.7ZM75.5935 27.356C75.3855 27.356 75.2095 27.284 75.0655 27.14C74.9215 26.996 74.8495 26.82 74.8495 26.612C74.8495 26.404 74.9215 26.228 75.0655 26.084C75.2095 25.94 75.3855 25.868 75.5935 25.868C75.7935 25.868 75.9615 25.94 76.0975 26.084C76.2415 26.228 76.3135 26.404 76.3135 26.612C76.3135 26.82 76.2415 26.996 76.0975 27.14C75.9615 27.284 75.7935 27.356 75.5935 27.356ZM76.1215 28.424V35H75.0295V28.424H76.1215ZM79.0746 26.12V35H77.9826V26.12H79.0746ZM80.5277 31.688C80.5277 31.016 80.6637 30.428 80.9357 29.924C81.2077 29.412 81.5797 29.016 82.0517 28.736C82.5317 28.456 83.0637 28.316 83.6477 28.316C84.2237 28.316 84.7237 28.44 85.1477 28.688C85.5717 28.936 85.8877 29.248 86.0957 29.624V28.424H87.1997V35H86.0957V33.776C85.8797 34.16 85.5557 34.48 85.1237 34.736C84.6997 34.984 84.2037 35.108 83.6357 35.108C83.0517 35.108 82.5237 34.964 82.0517 34.676C81.5797 34.388 81.2077 33.984 80.9357 33.464C80.6637 32.944 80.5277 32.352 80.5277 31.688ZM86.0957 31.7C86.0957 31.204 85.9957 30.772 85.7957 30.404C85.5957 30.036 85.3237 29.756 84.9797 29.564C84.6437 29.364 84.2717 29.264 83.8637 29.264C83.4557 29.264 83.0837 29.36 82.7477 29.552C82.4117 29.744 82.1437 30.024 81.9437 30.392C81.7437 30.76 81.6437 31.192 81.6437 31.688C81.6437 32.192 81.7437 32.632 81.9437 33.008C82.1437 33.376 82.4117 33.66 82.7477 33.86C83.0837 34.052 83.4557 34.148 83.8637 34.148C84.2717 34.148 84.6437 34.052 84.9797 33.86C85.3237 33.66 85.5957 33.376 85.7957 33.008C85.9957 32.632 86.0957 32.196 86.0957 31.7ZM90.1371 29.648C90.3611 29.256 90.6891 28.936 91.1211 28.688C91.5531 28.44 92.0451 28.316 92.5971 28.316C93.1891 28.316 93.7211 28.456 94.1931 28.736C94.6651 29.016 95.0371 29.412 95.3091 29.924C95.5811 30.428 95.7171 31.016 95.7171 31.688C95.7171 32.352 95.5811 32.944 95.3091 33.464C95.0371 33.984 94.6611 34.388 94.1811 34.676C93.7091 34.964 93.1811 35.108 92.5971 35.108C92.0291 35.108 91.5291 34.984 91.0971 34.736C90.6731 34.488 90.3531 34.172 90.1371 33.788V35H89.0451V26.12H90.1371V29.648ZM94.6011 31.688C94.6011 31.192 94.5011 30.76 94.3011 30.392C94.1011 30.024 93.8291 29.744 93.4851 29.552C93.1491 29.36 92.7771 29.264 92.3691 29.264C91.9691 29.264 91.5971 29.364 91.2531 29.564C90.9171 29.756 90.6451 30.04 90.4371 30.416C90.2371 30.784 90.1371 31.212 90.1371 31.7C90.1371 32.196 90.2371 32.632 90.4371 33.008C90.6451 33.376 90.9171 33.66 91.2531 33.86C91.5971 34.052 91.9691 34.148 92.3691 34.148C92.7771 34.148 93.1491 34.052 93.4851 33.86C93.8291 33.66 94.1011 33.376 94.3011 33.008C94.5011 32.632 94.6011 32.192 94.6011 31.688ZM98.2465 26.12V35H97.1545V26.12H98.2465ZM106.108 31.46C106.108 31.668 106.096 31.888 106.072 32.12H100.816C100.856 32.768 101.076 33.276 101.476 33.644C101.884 34.004 102.376 34.184 102.952 34.184C103.424 34.184 103.816 34.076 104.128 33.86C104.448 33.636 104.672 33.34 104.8 32.972H105.976C105.8 33.604 105.448 34.12 104.92 34.52C104.392 34.912 103.736 35.108 102.952 35.108C102.328 35.108 101.768 34.968 101.272 34.688C100.784 34.408 100.4 34.012 100.12 33.5C99.8396 32.98 99.6996 32.38 99.6996 31.7C99.6996 31.02 99.8356 30.424 100.108 29.912C100.38 29.4 100.76 29.008 101.248 28.736C101.744 28.456 102.312 28.316 102.952 28.316C103.576 28.316 104.128 28.452 104.608 28.724C105.088 28.996 105.456 29.372 105.712 29.852C105.976 30.324 106.108 30.86 106.108 31.46ZM104.98 31.232C104.98 30.816 104.888 30.46 104.704 30.164C104.52 29.86 104.268 29.632 103.948 29.48C103.636 29.32 103.288 29.24 102.904 29.24C102.352 29.24 101.88 29.416 101.488 29.768C101.104 30.12 100.884 30.608 100.828 31.232H104.98ZM113.4 35.084C112.848 35.084 112.352 34.988 111.912 34.796C111.48 34.596 111.14 34.324 110.892 33.98C110.644 33.628 110.516 33.224 110.508 32.768H111.672C111.712 33.16 111.872 33.492 112.152 33.764C112.44 34.028 112.856 34.16 113.4 34.16C113.92 34.16 114.328 34.032 114.624 33.776C114.928 33.512 115.08 33.176 115.08 32.768C115.08 32.448 114.992 32.188 114.816 31.988C114.64 31.788 114.42 31.636 114.156 31.532C113.892 31.428 113.536 31.316 113.088 31.196C112.536 31.052 112.092 30.908 111.756 30.764C111.428 30.62 111.144 30.396 110.904 30.092C110.672 29.78 110.556 29.364 110.556 28.844C110.556 28.388 110.672 27.984 110.904 27.632C111.136 27.28 111.46 27.008 111.876 26.816C112.3 26.624 112.784 26.528 113.328 26.528C114.112 26.528 114.752 26.724 115.248 27.116C115.752 27.508 116.036 28.028 116.1 28.676H114.9C114.86 28.356 114.692 28.076 114.396 27.836C114.1 27.588 113.708 27.464 113.22 27.464C112.764 27.464 112.392 27.584 112.104 27.824C111.816 28.056 111.672 28.384 111.672 28.808C111.672 29.112 111.756 29.36 111.924 29.552C112.1 29.744 112.312 29.892 112.56 29.996C112.816 30.092 113.172 30.204 113.628 30.332C114.18 30.484 114.624 30.636 114.96 30.788C115.296 30.932 115.584 31.16 115.824 31.472C116.064 31.776 116.184 32.192 116.184 32.72C116.184 33.128 116.076 33.512 115.86 33.872C115.644 34.232 115.324 34.524 114.9 34.748C114.476 34.972 113.976 35.084 113.4 35.084ZM118.883 29.636C119.099 29.26 119.419 28.948 119.843 28.7C120.275 28.444 120.775 28.316 121.343 28.316C121.927 28.316 122.455 28.456 122.927 28.736C123.407 29.016 123.783 29.412 124.055 29.924C124.327 30.428 124.463 31.016 124.463 31.688C124.463 32.352 124.327 32.944 124.055 33.464C123.783 33.984 123.407 34.388 122.927 34.676C122.455 34.964 121.927 35.108 121.343 35.108C120.783 35.108 120.287 34.984 119.855 34.736C119.431 34.48 119.107 34.164 118.883 33.788V38.12H117.791V28.424H118.883V29.636ZM123.347 31.688C123.347 31.192 123.247 30.76 123.047 30.392C122.847 30.024 122.575 29.744 122.231 29.552C121.895 29.36 121.523 29.264 121.115 29.264C120.715 29.264 120.343 29.364 119.999 29.564C119.663 29.756 119.391 30.04 119.183 30.416C118.983 30.784 118.883 31.212 118.883 31.7C118.883 32.196 118.983 32.632 119.183 33.008C119.391 33.376 119.663 33.66 119.999 33.86C120.343 34.052 120.715 34.148 121.115 34.148C121.523 34.148 121.895 34.052 122.231 33.86C122.575 33.66 122.847 33.376 123.047 33.008C123.247 32.632 123.347 32.192 123.347 31.688ZM125.493 31.688C125.493 31.016 125.629 30.428 125.901 29.924C126.173 29.412 126.545 29.016 127.017 28.736C127.497 28.456 128.029 28.316 128.613 28.316C129.189 28.316 129.689 28.44 130.113 28.688C130.537 28.936 130.853 29.248 131.061 29.624V28.424H132.165V35H131.061V33.776C130.845 34.16 130.521 34.48 130.089 34.736C129.665 34.984 129.169 35.108 128.601 35.108C128.017 35.108 127.489 34.964 127.017 34.676C126.545 34.388 126.173 33.984 125.901 33.464C125.629 32.944 125.493 32.352 125.493 31.688ZM131.061 31.7C131.061 31.204 130.961 30.772 130.761 30.404C130.561 30.036 130.289 29.756 129.945 29.564C129.609 29.364 129.237 29.264 128.829 29.264C128.421 29.264 128.049 29.36 127.713 29.552C127.377 29.744 127.109 30.024 126.909 30.392C126.709 30.76 126.609 31.192 126.609 31.688C126.609 32.192 126.709 32.632 126.909 33.008C127.109 33.376 127.377 33.66 127.713 33.86C128.049 34.052 128.421 34.148 128.829 34.148C129.237 34.148 129.609 34.052 129.945 33.86C130.289 33.66 130.561 33.376 130.761 33.008C130.961 32.632 131.061 32.196 131.061 31.7ZM133.602 31.7C133.602 31.02 133.738 30.428 134.01 29.924C134.282 29.412 134.658 29.016 135.138 28.736C135.626 28.456 136.182 28.316 136.806 28.316C137.614 28.316 138.278 28.512 138.798 28.904C139.326 29.296 139.674 29.84 139.842 30.536H138.666C138.554 30.136 138.334 29.82 138.006 29.588C137.686 29.356 137.286 29.24 136.806 29.24C136.182 29.24 135.678 29.456 135.294 29.888C134.91 30.312 134.718 30.916 134.718 31.7C134.718 32.492 134.91 33.104 135.294 33.536C135.678 33.968 136.182 34.184 136.806 34.184C137.286 34.184 137.686 34.072 138.006 33.848C138.326 33.624 138.546 33.304 138.666 32.888H139.842C139.666 33.56 139.314 34.1 138.786 34.508C138.258 34.908 137.598 35.108 136.806 35.108C136.182 35.108 135.626 34.968 135.138 34.688C134.658 34.408 134.282 34.012 134.01 33.5C133.738 32.988 133.602 32.388 133.602 31.7ZM147.299 31.46C147.299 31.668 147.287 31.888 147.263 32.12H142.007C142.047 32.768 142.267 33.276 142.667 33.644C143.075 34.004 143.567 34.184 144.143 34.184C144.615 34.184 145.007 34.076 145.319 33.86C145.639 33.636 145.863 33.34 145.991 32.972H147.167C146.991 33.604 146.639 34.12 146.111 34.52C145.583 34.912 144.927 35.108 144.143 35.108C143.519 35.108 142.959 34.968 142.463 34.688C141.975 34.408 141.591 34.012 141.311 33.5C141.031 32.98 140.891 32.38 140.891 31.7C140.891 31.02 141.027 30.424 141.299 29.912C141.571 29.4 141.951 29.008 142.439 28.736C142.935 28.456 143.503 28.316 144.143 28.316C144.767 28.316 145.319 28.452 145.799 28.724C146.279 28.996 146.647 29.372 146.903 29.852C147.167 30.324 147.299 30.86 147.299 31.46ZM146.171 31.232C146.171 30.816 146.079 30.46 145.895 30.164C145.711 29.86 145.459 29.632 145.139 29.48C144.827 29.32 144.479 29.24 144.095 29.24C143.543 29.24 143.071 29.416 142.679 29.768C142.295 30.12 142.075 30.608 142.019 31.232H146.171ZM61.6042 52.124C62.6202 51.308 63.4162 50.64 63.9922 50.12C64.5682 49.592 65.0522 49.044 65.4442 48.476C65.8442 47.9 66.0442 47.336 66.0442 46.784C66.0442 46.264 65.9162 45.856 65.6602 45.56C65.4122 45.256 65.0082 45.104 64.4482 45.104C63.9042 45.104 63.4802 45.276 63.1762 45.62C62.8802 45.956 62.7202 46.408 62.6962 46.976H61.6402C61.6722 46.08 61.9442 45.388 62.4562 44.9C62.9682 44.412 63.6282 44.168 64.4362 44.168C65.2602 44.168 65.9122 44.396 66.3922 44.852C66.8802 45.308 67.1242 45.936 67.1242 46.736C67.1242 47.4 66.9242 48.048 66.5242 48.68C66.1322 49.304 65.6842 49.856 65.1802 50.336C64.6762 50.808 64.0322 51.36 63.2482 51.992H67.3762V52.904H61.6042V52.124ZM68.6385 48.572C68.6385 47.196 68.8625 46.124 69.3105 45.356C69.7585 44.58 70.5425 44.192 71.6625 44.192C72.7745 44.192 73.5545 44.58 74.0025 45.356C74.4505 46.124 74.6745 47.196 74.6745 48.572C74.6745 49.972 74.4505 51.06 74.0025 51.836C73.5545 52.612 72.7745 53 71.6625 53C70.5425 53 69.7585 52.612 69.3105 51.836C68.8625 51.06 68.6385 49.972 68.6385 48.572ZM73.5945 48.572C73.5945 47.876 73.5465 47.288 73.4505 46.808C73.3625 46.32 73.1745 45.928 72.8865 45.632C72.6065 45.336 72.1985 45.188 71.6625 45.188C71.1185 45.188 70.7025 45.336 70.4145 45.632C70.1345 45.928 69.9465 46.32 69.8505 46.808C69.7625 47.288 69.7185 47.876 69.7185 48.572C69.7185 49.292 69.7625 49.896 69.8505 50.384C69.9465 50.872 70.1345 51.264 70.4145 51.56C70.7025 51.856 71.1185 52.004 71.6625 52.004C72.1985 52.004 72.6065 51.856 72.8865 51.56C73.1745 51.264 73.3625 50.872 73.4505 50.384C73.5465 49.896 73.5945 49.292 73.5945 48.572ZM76.1737 48.572C76.1737 47.196 76.3977 46.124 76.8457 45.356C77.2937 44.58 78.0777 44.192 79.1977 44.192C80.3097 44.192 81.0897 44.58 81.5377 45.356C81.9857 46.124 82.2097 47.196 82.2097 48.572C82.2097 49.972 81.9857 51.06 81.5377 51.836C81.0897 52.612 80.3097 53 79.1977 53C78.0777 53 77.2937 52.612 76.8457 51.836C76.3977 51.06 76.1737 49.972 76.1737 48.572ZM81.1297 48.572C81.1297 47.876 81.0817 47.288 80.9857 46.808C80.8977 46.32 80.7097 45.928 80.4217 45.632C80.1417 45.336 79.7337 45.188 79.1977 45.188C78.6537 45.188 78.2377 45.336 77.9497 45.632C77.6697 45.928 77.4817 46.32 77.3857 46.808C77.2977 47.288 77.2537 47.876 77.2537 48.572C77.2537 49.292 77.2977 49.896 77.3857 50.384C77.4817 50.872 77.6697 51.264 77.9497 51.56C78.2377 51.856 78.6537 52.004 79.1977 52.004C79.7337 52.004 80.1417 51.856 80.4217 51.56C80.7097 51.264 80.8977 50.872 80.9857 50.384C81.0817 49.896 81.1297 49.292 81.1297 48.572ZM84.9808 47.636C85.1968 47.26 85.5168 46.948 85.9408 46.7C86.3728 46.444 86.8728 46.316 87.4408 46.316C88.0248 46.316 88.5528 46.456 89.0248 46.736C89.5048 47.016 89.8808 47.412 90.1528 47.924C90.4248 48.428 90.5608 49.016 90.5608 49.688C90.5608 50.352 90.4248 50.944 90.1528 51.464C89.8808 51.984 89.5048 52.388 89.0248 52.676C88.5528 52.964 88.0248 53.108 87.4408 53.108C86.8808 53.108 86.3848 52.984 85.9528 52.736C85.5288 52.48 85.2048 52.164 84.9808 51.788V56.12H83.8888V46.424H84.9808V47.636ZM89.4448 49.688C89.4448 49.192 89.3448 48.76 89.1448 48.392C88.9448 48.024 88.6728 47.744 88.3288 47.552C87.9928 47.36 87.6208 47.264 87.2128 47.264C86.8128 47.264 86.4408 47.364 86.0968 47.564C85.7608 47.756 85.4888 48.04 85.2808 48.416C85.0808 48.784 84.9808 49.212 84.9808 49.7C84.9808 50.196 85.0808 50.632 85.2808 51.008C85.4888 51.376 85.7608 51.66 86.0968 51.86C86.4408 52.052 86.8128 52.148 87.2128 52.148C87.6208 52.148 87.9928 52.052 88.3288 51.86C88.6728 51.66 88.9448 51.376 89.1448 51.008C89.3448 50.632 89.4448 50.192 89.4448 49.688ZM95.4302 53L93.8702 50.552L92.3702 53H91.2302L93.3542 49.736L91.2302 46.424H92.4662L94.0262 48.86L95.5142 46.424H96.6542L94.5422 49.676L96.6662 53H95.4302ZM104.66 44.96L105.092 45.74L103.424 46.436L105.104 47.12L104.648 47.924L103.196 46.868L103.388 48.68H102.488L102.668 46.868L101.216 47.936L100.748 47.12L102.416 46.424L100.748 45.752L101.192 44.948L102.68 46.016L102.488 44.192H103.4L103.196 46.016L104.66 44.96ZM111.379 48.488C110.931 48.312 110.587 48.056 110.347 47.72C110.107 47.384 109.987 46.976 109.987 46.496C109.987 46.064 110.095 45.676 110.311 45.332C110.527 44.98 110.847 44.704 111.271 44.504C111.703 44.296 112.223 44.192 112.831 44.192C113.439 44.192 113.955 44.296 114.379 44.504C114.811 44.704 115.135 44.98 115.351 45.332C115.575 45.676 115.687 46.064 115.687 46.496C115.687 46.96 115.563 47.368 115.315 47.72C115.067 48.064 114.727 48.32 114.295 48.488C114.791 48.64 115.183 48.908 115.471 49.292C115.767 49.668 115.915 50.124 115.915 50.66C115.915 51.18 115.787 51.636 115.531 52.028C115.275 52.412 114.911 52.712 114.439 52.928C113.975 53.136 113.439 53.24 112.831 53.24C112.223 53.24 111.687 53.136 111.223 52.928C110.767 52.712 110.411 52.412 110.155 52.028C109.899 51.636 109.771 51.18 109.771 50.66C109.771 50.124 109.915 49.664 110.203 49.28C110.491 48.896 110.883 48.632 111.379 48.488ZM114.631 46.628C114.631 46.14 114.471 45.764 114.151 45.5C113.831 45.236 113.391 45.104 112.831 45.104C112.279 45.104 111.843 45.236 111.523 45.5C111.203 45.764 111.043 46.144 111.043 46.64C111.043 47.088 111.207 47.448 111.535 47.72C111.871 47.992 112.303 48.128 112.831 48.128C113.367 48.128 113.799 47.992 114.127 47.72C114.463 47.44 114.631 47.076 114.631 46.628ZM112.831 48.968C112.239 48.968 111.755 49.108 111.379 49.388C111.003 49.66 110.815 50.072 110.815 50.624C110.815 51.136 110.995 51.548 111.355 51.86C111.723 52.172 112.215 52.328 112.831 52.328C113.447 52.328 113.935 52.172 114.295 51.86C114.655 51.548 114.835 51.136 114.835 50.624C114.835 50.088 114.651 49.68 114.283 49.4C113.915 49.112 113.431 48.968 112.831 48.968ZM117.365 48.572C117.365 47.196 117.589 46.124 118.037 45.356C118.485 44.58 119.269 44.192 120.389 44.192C121.501 44.192 122.281 44.58 122.729 45.356C123.177 46.124 123.401 47.196 123.401 48.572C123.401 49.972 123.177 51.06 122.729 51.836C122.281 52.612 121.501 53 120.389 53C119.269 53 118.485 52.612 118.037 51.836C117.589 51.06 117.365 49.972 117.365 48.572ZM122.321 48.572C122.321 47.876 122.273 47.288 122.177 46.808C122.089 46.32 121.901 45.928 121.613 45.632C121.333 45.336 120.925 45.188 120.389 45.188C119.845 45.188 119.429 45.336 119.141 45.632C118.861 45.928 118.673 46.32 118.577 46.808C118.489 47.288 118.445 47.876 118.445 48.572C118.445 49.292 118.489 49.896 118.577 50.384C118.673 50.872 118.861 51.264 119.141 51.56C119.429 51.856 119.845 52.004 120.389 52.004C120.925 52.004 121.333 51.856 121.613 51.56C121.901 51.264 122.089 50.872 122.177 50.384C122.273 49.896 122.321 49.292 122.321 48.572ZM126.172 47.636C126.388 47.26 126.708 46.948 127.132 46.7C127.564 46.444 128.064 46.316 128.632 46.316C129.216 46.316 129.744 46.456 130.216 46.736C130.696 47.016 131.072 47.412 131.344 47.924C131.616 48.428 131.752 49.016 131.752 49.688C131.752 50.352 131.616 50.944 131.344 51.464C131.072 51.984 130.696 52.388 130.216 52.676C129.744 52.964 129.216 53.108 128.632 53.108C128.072 53.108 127.576 52.984 127.144 52.736C126.72 52.48 126.396 52.164 126.172 51.788V56.12H125.08V46.424H126.172V47.636ZM130.636 49.688C130.636 49.192 130.536 48.76 130.336 48.392C130.136 48.024 129.864 47.744 129.52 47.552C129.184 47.36 128.812 47.264 128.404 47.264C128.004 47.264 127.632 47.364 127.288 47.564C126.952 47.756 126.68 48.04 126.472 48.416C126.272 48.784 126.172 49.212 126.172 49.7C126.172 50.196 126.272 50.632 126.472 51.008C126.68 51.376 126.952 51.66 127.288 51.86C127.632 52.052 128.004 52.148 128.404 52.148C128.812 52.148 129.184 52.052 129.52 51.86C129.864 51.66 130.136 51.376 130.336 51.008C130.536 50.632 130.636 50.192 130.636 49.688ZM136.622 53L135.062 50.552L133.562 53H132.422L134.546 49.736L132.422 46.424H133.658L135.218 48.86L136.706 46.424H137.846L135.734 49.676L137.858 53H136.622Z" fill="black"/>
</svg>
